<svg width="161" height="55" viewBox="0 0 161 55" fill="none" xmlns="http://www.w3.org/2000/svg">
<g filter="url(#filter0_d_315_216)">
<path d="M10.98 41.77C9.26 41.77 7.92 41.41 6.96 40.69C6.02 39.97 5.36 39 4.98 37.78C4.62 36.56 4.44 35.2 4.44 33.7V25.12C4.44 23.48 4.62 22.05 4.98 20.83C5.36 19.61 6.02 18.67 6.96 18.01C7.92 17.33 9.26 16.99 10.98 16.99C12.5 16.99 13.7 17.27 14.58 17.83C15.48 18.39 16.12 19.19 16.5 20.23C16.9 21.27 17.1 22.52 17.1 23.98V25.9H13.89V24.19C13.89 23.29 13.84 22.5 13.74 21.82C13.66 21.12 13.42 20.58 13.02 20.2C12.62 19.82 11.95 19.63 11.01 19.63C10.05 19.63 9.35 19.84 8.91 20.26C8.47 20.66 8.18 21.24 8.04 22C7.92 22.74 7.86 23.61 7.86 24.61V34.24C7.86 35.46 7.96 36.43 8.16 37.15C8.36 37.85 8.69 38.35 9.15 38.65C9.61 38.95 10.23 39.1 11.01 39.1C11.93 39.1 12.59 38.9 12.99 38.5C13.39 38.08 13.64 37.51 13.74 36.79C13.84 36.07 13.89 35.23 13.89 34.27V32.47H17.1V34.27C17.1 35.75 16.92 37.06 16.56 38.2C16.2 39.32 15.58 40.2 14.7 40.84C13.82 41.46 12.58 41.77 10.98 41.77ZM24.8295 41.74C23.5495 41.74 22.5395 41.48 21.7995 40.96C21.0595 40.44 20.5295 39.7 20.2095 38.74C19.9095 37.78 19.7595 36.65 19.7595 35.35V30.31C19.7595 29.01 19.9095 27.88 20.2095 26.92C20.5295 25.96 21.0595 25.22 21.7995 24.7C22.5395 24.18 23.5495 23.92 24.8295 23.92C26.1095 23.92 27.1095 24.18 27.8295 24.7C28.5695 25.22 29.0895 25.96 29.3895 26.92C29.7095 27.88 29.8695 29.01 29.8695 30.31V35.35C29.8695 36.65 29.7095 37.78 29.3895 38.74C29.0895 39.7 28.5695 40.44 27.8295 40.96C27.1095 41.48 26.1095 41.74 24.8295 41.74ZM24.8295 39.37C25.4495 39.37 25.8795 39.19 26.1195 38.83C26.3795 38.47 26.5295 38 26.5695 37.42C26.6295 36.82 26.6595 36.2 26.6595 35.56V30.13C26.6595 29.47 26.6295 28.85 26.5695 28.27C26.5295 27.69 26.3795 27.22 26.1195 26.86C25.8795 26.48 25.4495 26.29 24.8295 26.29C24.2095 26.29 23.7695 26.48 23.5095 26.86C23.2495 27.22 23.0895 27.69 23.0295 28.27C22.9895 28.85 22.9695 29.47 22.9695 30.13V35.56C22.9695 36.2 22.9895 36.82 23.0295 37.42C23.0895 38 23.2495 38.47 23.5095 38.83C23.7695 39.19 24.2095 39.37 24.8295 39.37ZM32.8036 41.5V24.16H36.0136V25.87C36.5936 25.33 37.2336 24.87 37.9336 24.49C38.6336 24.11 39.4036 23.92 40.2436 23.92C40.9436 23.92 41.4736 24.1 41.8336 24.46C42.2136 24.82 42.4736 25.27 42.6136 25.81C42.7736 26.35 42.8536 26.9 42.8536 27.46V41.5H39.6436V28.39C39.6436 27.77 39.5536 27.29 39.3736 26.95C39.1936 26.61 38.8236 26.44 38.2636 26.44C37.9036 26.44 37.5236 26.55 37.1236 26.77C36.7436 26.97 36.3736 27.22 36.0136 27.52V41.5H32.8036ZM45.9872 41.5V24.16H49.1972V25.87C49.7772 25.33 50.4172 24.87 51.1172 24.49C51.8172 24.11 52.5872 23.92 53.4272 23.92C54.1272 23.92 54.6572 24.1 55.0172 24.46C55.3972 24.82 55.6572 25.27 55.7972 25.81C55.9572 26.35 56.0372 26.9 56.0372 27.46V41.5H52.8272V28.39C52.8272 27.77 52.7372 27.29 52.5572 26.95C52.3772 26.61 52.0072 26.44 51.4472 26.44C51.0872 26.44 50.7072 26.55 50.3072 26.77C49.9272 26.97 49.5572 27.22 49.1972 27.52V41.5H45.9872ZM63.9708 41.74C62.6108 41.74 61.5608 41.48 60.8208 40.96C60.0808 40.42 59.5608 39.64 59.2608 38.62C58.9808 37.58 58.8408 36.31 58.8408 34.81V30.85C58.8408 29.31 58.9908 28.03 59.2908 27.01C59.5908 25.99 60.1108 25.22 60.8508 24.7C61.6108 24.18 62.6508 23.92 63.9708 23.92C65.4308 23.92 66.5008 24.22 67.1808 24.82C67.8808 25.42 68.3408 26.29 68.5608 27.43C68.7808 28.55 68.8908 29.9 68.8908 31.48V32.89H62.0508V36.37C62.0508 37.07 62.1108 37.64 62.2308 38.08C62.3708 38.52 62.5808 38.85 62.8608 39.07C63.1608 39.27 63.5408 39.37 64.0008 39.37C64.4808 39.37 64.8408 39.26 65.0808 39.04C65.3408 38.8 65.5108 38.47 65.5908 38.05C65.6908 37.61 65.7408 37.1 65.7408 36.52V35.47H68.8608V36.13C68.8608 37.87 68.4908 39.24 67.7508 40.24C67.0108 41.24 65.7508 41.74 63.9708 41.74ZM62.0508 31.15H65.7408V29.59C65.7408 28.87 65.7008 28.27 65.6208 27.79C65.5408 27.29 65.3708 26.92 65.1108 26.68C64.8708 26.42 64.4808 26.29 63.9408 26.29C63.4208 26.29 63.0208 26.41 62.7408 26.65C62.4808 26.89 62.3008 27.3 62.2008 27.88C62.1008 28.44 62.0508 29.22 62.0508 30.22V31.15ZM76.5377 41.74C75.1177 41.74 74.0377 41.46 73.2977 40.9C72.5777 40.32 72.0877 39.51 71.8277 38.47C71.5877 37.43 71.4677 36.22 71.4677 34.84V30.85C71.4677 29.39 71.5977 28.15 71.8577 27.13C72.1177 26.09 72.6077 25.3 73.3277 24.76C74.0677 24.2 75.1377 23.92 76.5377 23.92C77.7977 23.92 78.7677 24.13 79.4477 24.55C80.1477 24.95 80.6277 25.56 80.8877 26.38C81.1477 27.18 81.2777 28.18 81.2777 29.38V30.4H78.3677V29.35C78.3677 28.59 78.3177 27.99 78.2177 27.55C78.1177 27.11 77.9377 26.79 77.6777 26.59C77.4177 26.39 77.0477 26.29 76.5677 26.29C76.0477 26.29 75.6477 26.41 75.3677 26.65C75.0877 26.89 74.8977 27.3 74.7977 27.88C74.7177 28.44 74.6777 29.21 74.6777 30.19V35.65C74.6777 37.13 74.8177 38.12 75.0977 38.62C75.3777 39.12 75.8777 39.37 76.5977 39.37C77.1377 39.37 77.5277 39.25 77.7677 39.01C78.0277 38.75 78.1877 38.39 78.2477 37.93C78.3277 37.47 78.3677 36.95 78.3677 36.37V34.96H81.2777V36.16C81.2777 37.32 81.1377 38.32 80.8577 39.16C80.5977 40 80.1177 40.64 79.4177 41.08C78.7377 41.52 77.7777 41.74 76.5377 41.74ZM88.7517 41.74C87.8517 41.74 87.1217 41.57 86.5617 41.23C86.0217 40.89 85.6217 40.41 85.3617 39.79C85.1217 39.17 85.0017 38.44 85.0017 37.6V26.29H83.1717V24.16H85.0017V19.09H88.2117V24.16H91.0017V26.29H88.2117V37.39C88.2117 38.07 88.3217 38.56 88.5417 38.86C88.7617 39.14 89.1817 39.28 89.8017 39.28C89.9617 39.28 90.1417 39.27 90.3417 39.25C90.5617 39.23 90.7717 39.21 90.9717 39.19V41.56C90.5717 41.62 90.2017 41.66 89.8617 41.68C89.5217 41.72 89.1517 41.74 88.7517 41.74ZM93.6302 41.5V17.2H103.05V19.72H97.0202V27.76H101.91V30.16H97.0202V39.07H103.11V41.5H93.6302ZM110.197 41.74C109.297 41.74 108.567 41.57 108.007 41.23C107.467 40.89 107.067 40.41 106.807 39.79C106.567 39.17 106.447 38.44 106.447 37.6V26.29H104.617V24.16H106.447V19.09H109.657V24.16H112.447V26.29H109.657V37.39C109.657 38.07 109.767 38.56 109.987 38.86C110.207 39.14 110.627 39.28 111.247 39.28C111.407 39.28 111.587 39.27 111.787 39.25C112.007 39.23 112.217 39.21 112.417 39.19V41.56C112.017 41.62 111.647 41.66 111.307 41.68C110.967 41.72 110.597 41.74 110.197 41.74ZM119.606 41.74C118.246 41.74 117.196 41.48 116.456 40.96C115.716 40.42 115.196 39.64 114.896 38.62C114.616 37.58 114.476 36.31 114.476 34.81V30.85C114.476 29.31 114.626 28.03 114.926 27.01C115.226 25.99 115.746 25.22 116.486 24.7C117.246 24.18 118.286 23.92 119.606 23.92C121.066 23.92 122.136 24.22 122.816 24.82C123.516 25.42 123.976 26.29 124.196 27.43C124.416 28.55 124.526 29.9 124.526 31.48V32.89H117.686V36.37C117.686 37.07 117.746 37.64 117.866 38.08C118.006 38.52 118.216 38.85 118.496 39.07C118.796 39.27 119.176 39.37 119.636 39.37C120.116 39.37 120.476 39.26 120.716 39.04C120.976 38.8 121.146 38.47 121.226 38.05C121.326 37.61 121.376 37.1 121.376 36.52V35.47H124.496V36.13C124.496 37.87 124.126 39.24 123.386 40.24C122.646 41.24 121.386 41.74 119.606 41.74ZM117.686 31.15H121.376V29.59C121.376 28.87 121.336 28.27 121.256 27.79C121.176 27.29 121.006 26.92 120.746 26.68C120.506 26.42 120.116 26.29 119.576 26.29C119.056 26.29 118.656 26.41 118.376 26.65C118.116 26.89 117.936 27.3 117.836 27.88C117.736 28.44 117.686 29.22 117.686 30.22V31.15ZM132.173 41.74C130.753 41.74 129.673 41.46 128.933 40.9C128.213 40.32 127.723 39.51 127.463 38.47C127.223 37.43 127.103 36.22 127.103 34.84V30.85C127.103 29.39 127.233 28.15 127.493 27.13C127.753 26.09 128.243 25.3 128.963 24.76C129.703 24.2 130.773 23.92 132.173 23.92C133.433 23.92 134.403 24.13 135.083 24.55C135.783 24.95 136.263 25.56 136.523 26.38C136.783 27.18 136.913 28.18 136.913 29.38V30.4H134.003V29.35C134.003 28.59 133.953 27.99 133.853 27.55C133.753 27.11 133.573 26.79 133.312 26.59C133.053 26.39 132.683 26.29 132.203 26.29C131.683 26.29 131.283 26.41 131.003 26.65C130.723 26.89 130.533 27.3 130.433 27.88C130.353 28.44 130.313 29.21 130.313 30.19V35.65C130.313 37.13 130.453 38.12 130.733 38.62C131.013 39.12 131.513 39.37 132.233 39.37C132.773 39.37 133.163 39.25 133.403 39.01C133.663 38.75 133.823 38.39 133.883 37.93C133.963 37.47 134.003 36.95 134.003 36.37V34.96H136.913V36.16C136.913 37.32 136.773 38.32 136.493 39.16C136.233 40 135.753 40.64 135.053 41.08C134.373 41.52 133.413 41.74 132.173 41.74Z" fill="#576065"/>
</g>
<path d="M3 49.5L31 49.5" stroke="#FF735C" stroke-width="3"/>
<defs>
<filter id="filter0_d_315_216" x="0.439941" y="16.99" width="140.473" height="32.78" filterUnits="userSpaceOnUse" color-interpolation-filters="sRGB">
<feFlood flood-opacity="0" result="BackgroundImageFix"/>
<feColorMatrix in="SourceAlpha" type="matrix" values="0 0 0 0 0 0 0 0 0 0 0 0 0 0 0 0 0 0 127 0" result="hardAlpha"/>
<feOffset dy="4"/>
<feGaussianBlur stdDeviation="2"/>
<feComposite in2="hardAlpha" operator="out"/>
<feColorMatrix type="matrix" values="0 0 0 0 0 0 0 0 0 0 0 0 0 0 0 0 0 0 0.25 0"/>
<feBlend mode="normal" in2="BackgroundImageFix" result="effect1_dropShadow_315_216"/>
<feBlend mode="normal" in="SourceGraphic" in2="effect1_dropShadow_315_216" result="shape"/>
</filter>
</defs>
</svg>
