<svg width="1440" height="1024" viewBox="0 0 1440 1024" fill="none" xmlns="http://www.w3.org/2000/svg">
<g clip-path="url(#clip0_368_17)">
<rect width="1440" height="1024" fill="#FF735C"/>
<path d="M155.5 80C155.5 123.381 120.999 158.5 78.5 158.5C36.0007 158.5 1.5 123.381 1.5 80C1.5 36.6188 36.0007 1.5 78.5 1.5C120.999 1.5 155.5 36.6188 155.5 80Z" fill="#FF735C" stroke="#EEEEEE" stroke-width="3"/>
<path d="M1438.5 964.5C1438.5 996.313 1408.07 1022.5 1370 1022.5C1331.93 1022.5 1301.5 996.313 1301.5 964.5C1301.5 932.687 1331.93 906.5 1370 906.5C1408.07 906.5 1438.5 932.687 1438.5 964.5Z" fill="#FF735C" stroke="#EEEEEE" stroke-width="3"/>
<path d="M178.5 869C178.5 874.86 173.963 879.5 168.5 879.5C163.037 879.5 158.5 874.86 158.5 869C158.5 863.14 163.037 858.5 168.5 858.5C173.963 858.5 178.5 863.14 178.5 869Z" fill="#FF735C" stroke="#EEEEEE" stroke-width="3"/>
<path d="M178.5 903C178.5 908.86 173.963 913.5 168.5 913.5C163.037 913.5 158.5 908.86 158.5 903C158.5 897.14 163.037 892.5 168.5 892.5C173.963 892.5 178.5 897.14 178.5 903Z" fill="#FF735C" stroke="#EEEEEE" stroke-width="3"/>
<path d="M155.5 891C155.5 896.925 151.127 901.5 146 901.5C140.873 901.5 136.5 896.925 136.5 891C136.5 885.075 140.873 880.5 146 880.5C151.127 880.5 155.5 885.075 155.5 891Z" fill="#FF735C" stroke="#EEEEEE" stroke-width="3"/>
<path d="M702.46 120.925C697.164 117.055 696.436 110.771 700.28 106.918C704.124 103.066 711.491 102.697 716.786 106.567C722.082 110.437 722.81 116.721 718.966 120.574C715.122 124.427 707.756 124.795 702.46 120.925Z" fill="#FF735C" stroke="#EEEEEE" stroke-width="3"/>
<path d="M664.301 938.814C660.061 933.601 660.899 927.334 665.485 924.669C670.072 922.004 677.294 923.587 681.534 928.801C685.774 934.014 684.936 940.281 680.35 942.946C675.763 945.611 668.541 944.028 664.301 938.814Z" fill="#FF735C" stroke="#EEEEEE" stroke-width="3"/>
<path d="M701.194 72.5347C683.439 59.5593 680.107 38.5386 693 25.6168C705.893 12.6951 730.674 12.2193 748.428 25.1948C766.183 38.1702 769.515 59.1908 756.622 72.1126C743.729 85.0344 718.949 85.5101 701.194 72.5347Z" fill="#FF735C" stroke="#EEEEEE" stroke-width="3"/>
<path d="M701.194 72.5347C683.439 59.5593 680.107 38.5386 693 25.6168C705.893 12.6951 730.674 12.2193 748.428 25.1948C766.183 38.1702 769.515 59.1908 756.622 72.1126C743.729 85.0344 718.949 85.5101 701.194 72.5347Z" fill="#FF735C" stroke="#EEEEEE" stroke-width="3"/>
<path d="M1341.5 148C1341.5 153.925 1337.13 158.5 1332 158.5C1326.87 158.5 1322.5 153.925 1322.5 148C1322.5 142.075 1326.87 137.5 1332 137.5C1337.13 137.5 1341.5 142.075 1341.5 148Z" fill="#FF735C" stroke="#EEEEEE" stroke-width="3"/>
</g>
<defs>
<clipPath id="clip0_368_17">
<rect width="1440" height="1024" fill="white"/>
</clipPath>
</defs>
</svg>
