<svg width="1512" height="982" viewBox="0 0 1512 982" fill="none" xmlns="http://www.w3.org/2000/svg">
<g clip-path="url(#clip0_1_2)">
<rect width="1512" height="982" fill="#FF735C"/>
<path d="M102.5 28C102.5 74.0515 63.3907 111.5 15 111.5C-33.3907 111.5 -72.5 74.0515 -72.5 28C-72.5 -18.0515 -33.3907 -55.5 15 -55.5C63.3907 -55.5 102.5 -18.0515 102.5 28Z" fill="#FF735C" stroke="#EEEEEE" stroke-width="3"/>
<path d="M1554.5 968.5C1554.5 1002.45 1520.12 1030.5 1477 1030.5C1433.88 1030.5 1399.5 1002.45 1399.5 968.5C1399.5 934.548 1433.88 906.5 1477 906.5C1520.12 906.5 1554.5 934.548 1554.5 968.5Z" fill="#FF735C" stroke="#EEEEEE" stroke-width="3"/>
<circle cx="116.5" cy="867.5" r="11" fill="#FF735C" stroke="#EEEEEE" stroke-width="3"/>
<circle cx="116.5" cy="903.5" r="11" fill="#FF735C" stroke="#EEEEEE" stroke-width="3"/>
<circle cx="91.5" cy="890.5" r="11" fill="#FF735C" stroke="#EEEEEE" stroke-width="3"/>
<path d="M721.038 71.7023C714.973 67.538 714.131 60.7682 718.544 56.6131C722.957 52.4581 731.404 52.0665 737.469 56.2308C743.534 60.395 744.376 67.1649 739.963 71.3199C735.551 75.475 727.103 75.8666 721.038 71.7023Z" fill="#FF735C" stroke="#EEEEEE" stroke-width="3"/>
<path d="M677.801 941.49C672.986 935.927 673.883 929.164 679.203 926.26C684.523 923.356 692.795 925.113 697.61 930.675C702.425 936.238 701.528 943 696.208 945.905C690.888 948.809 682.616 947.052 677.801 941.49Z" fill="#FF735C" stroke="#EEEEEE" stroke-width="3"/>
<path d="M719.606 20.24C699.443 6.39615 695.644 -16.0454 710.304 -29.8492C724.964 -43.653 753.124 -44.1507 773.287 -30.3068C793.449 -16.463 797.248 5.97856 782.589 19.7824C767.929 33.5862 739.768 34.0838 719.606 20.24Z" fill="#FF735C" stroke="#EEEEEE" stroke-width="3"/>
<path d="M719.606 20.2399C699.443 6.39603 695.644 -16.0455 710.304 -29.8493C724.964 -43.6531 753.124 -44.1508 773.287 -30.3069C793.449 -16.4631 797.248 5.97844 782.589 19.7822C767.929 33.5861 739.768 34.0837 719.606 20.2399Z" fill="#FF735C" stroke="#EEEEEE" stroke-width="3"/>
<circle cx="1433.5" cy="100.5" r="11" fill="#FF735C" stroke="#EEEEEE" stroke-width="3"/>
</g>
<defs>
<clipPath id="clip0_1_2">
<rect width="1512" height="982" fill="white"/>
</clipPath>
</defs>
</svg>
